<svg width="1406" height="737" viewBox="0 0 1406 737" fill="none" xmlns="http://www.w3.org/2000/svg">
<rect width="1406" height="737" fill="#E5E5E5"/>
<g id="hole">
<g id="main">
<g id="Guy">
<path id="Vector" d="M1075.7 395.921L1086.13 433.123C1086.13 433.123 1083.98 466.075 1094.01 459.628C1104.27 453.03 1100.45 425.243 1100.45 425.243L1094.44 391.868L1075.7 395.921Z" fill="#FFB9B9"/>
<path id="Vector_2" d="M1081.27 291.561L1089.88 300.173V341.208C1089.88 341.208 1094.95 348.807 1093.93 350.833C1092.92 352.86 1091.91 352.86 1092.92 354.38C1093.93 355.899 1094.95 356.913 1093.93 357.926C1092.92 358.939 1092.92 361.472 1093.93 362.485C1094.95 363.499 1096.97 365.018 1095.45 366.538C1093.93 368.058 1091.91 367.045 1093.93 372.617C1095.96 378.19 1099.51 379.71 1098.49 381.736C1097.48 383.763 1097.48 388.829 1097.48 388.829L1075.7 391.868L1071.14 334.622L1081.27 291.561Z" fill="#D0CDE1"/>
<path id="Vector_3" d="M1098.49 388.322L1073.16 389.335L1074.18 399.974L1096.47 395.921L1098.49 388.322Z" fill="#3F3D56"/>
<path id="Vector_4" d="M1028.84 238.621L1025.8 269.017L1056.7 273.576L1058.98 256.099L1061.26 238.621H1028.84Z" fill="#FFB9B9"/>
<path id="Vector_5" opacity="0.1" d="M1028.84 238.621L1025.8 269.017L1056.7 273.576L1058.98 256.099L1061.26 238.621H1028.84Z" fill="black"/>
<path id="Vector_6" d="M961.711 383.256L978.935 420.238C978.935 420.238 981.975 437.463 986.534 437.969C991.094 438.476 995.653 420.238 995.653 420.238L989.574 410.613L982.481 383.256H961.711Z" fill="#FFB9B9"/>
<path id="Vector_7" d="M997.68 416.692L983.495 438.982C983.495 438.982 969.816 651.249 971.843 649.73C973.869 648.21 980.455 647.703 982.988 643.65C985.521 639.598 1001.23 643.65 1001.23 643.65L1010.34 634.025V626.426C1010.34 624.906 1028.58 508.894 1028.58 508.894V538.277C1028.58 538.277 1023.01 646.183 1032.13 645.17C1041.25 644.157 1059.99 638.078 1059.99 638.078C1059.99 638.078 1086.84 436.449 1078.74 428.85C1070.63 421.251 1067.08 404.027 1067.08 404.027L997.68 416.692Z" fill="#2F2E41"/>
<path id="Vector_8" d="M1045.81 248.5C1059.24 248.5 1070.12 237.612 1070.12 224.183C1070.12 210.753 1059.24 199.866 1045.81 199.866C1032.38 199.866 1021.49 210.753 1021.49 224.183C1021.49 237.612 1032.38 248.5 1045.81 248.5Z" fill="#FFB9B9"/>
<path id="Vector_9" d="M991.6 273.83L988.054 271.803C988.054 271.803 972.349 282.442 967.283 306.252C962.217 330.063 958.671 336.142 958.671 336.142C958.671 336.142 953.605 337.155 957.151 340.701C960.698 344.248 960.698 343.741 957.658 345.767C954.618 347.794 952.592 343.741 954.618 347.794C956.645 351.847 959.178 350.833 957.151 353.366C955.125 355.899 951.579 355.9 953.605 357.926C955.631 359.952 951.579 364.512 954.112 366.538C956.645 368.565 957.658 369.071 957.658 372.617C957.642 374.687 957.985 376.744 958.671 378.697H985.015C985.015 378.697 979.948 369.071 981.468 367.045C982.988 365.018 983.495 362.992 982.481 361.979C981.468 360.966 978.429 362.992 981.468 360.459C984.508 357.926 985.521 359.446 984.508 356.406C983.495 353.367 981.468 354.886 983.495 353.366C985.521 351.847 987.041 352.353 986.028 350.834C985.015 349.314 982.988 349.314 985.015 348.301C987.041 347.287 988.561 348.301 988.054 345.767C987.548 343.234 987.041 344.248 988.054 343.235C989.067 342.221 999.706 307.772 999.706 306.759C999.706 305.746 991.6 273.83 991.6 273.83Z" fill="#D0CDE1"/>
<path id="Vector_10" d="M986.534 376.67L954.618 378.697L962.724 386.296L985.015 386.802L986.534 376.67Z" fill="#3F3D56"/>
<path id="Vector_11" d="M995.653 414.666L989.067 426.824C989.067 426.824 1008.82 429.357 1015.92 431.89C1023.01 434.423 1041.25 437.969 1041.25 437.969L1045.81 420.238L995.653 414.666Z" fill="#3F3D56"/>
<path id="Vector_12" d="M1053.41 420.238L1058.98 436.956L1081.27 432.397L1078.74 416.692L1053.41 420.238Z" fill="#3F3D56"/>
<path id="Vector_13" d="M1062.52 256.605C1062.52 256.605 1061.01 255.592 1057.46 257.618C1053.91 259.645 1042.26 260.658 1036.69 254.579C1031.12 248.5 1027.06 243.433 1025.54 244.447C1024.02 245.46 1023.01 257.112 1023.01 257.112L1017.94 261.165L988.054 271.803L990.587 340.195L995.147 355.899C995.147 355.899 991.6 368.058 996.16 375.15C1000.72 382.243 993.627 384.776 993.627 384.776C993.627 384.776 992.107 386.802 993.12 391.868C994.133 396.934 992.107 415.679 992.107 415.679C992.107 415.679 1035.17 434.93 1080.26 418.212L1075.19 398.961L1072.66 355.899C1072.66 355.899 1075.19 348.807 1074.68 345.767C1074.18 342.728 1089.88 300.173 1089.88 300.173C1089.88 300.173 1087.35 278.896 1074.18 274.336C1061.01 269.777 1058.98 265.217 1058.98 265.217C1058.98 265.217 1065.06 258.632 1062.52 256.605Z" fill="#D0CDE1"/>
<path id="Vector_14" d="M1021.32 227.298C1021.32 227.298 1018.8 223.51 1019.77 219.431C1020.35 217.115 1020.58 214.725 1020.45 212.341C1020.45 212.341 1022.49 205.736 1024.53 202.046C1026.57 198.355 1025.59 196.801 1032 195.636C1038.41 194.47 1035.79 186.118 1052.69 195.15C1053.26 195.946 1054.06 196.555 1054.97 196.901C1055.89 197.247 1056.89 197.313 1057.84 197.092C1061.34 196.413 1062.6 201.269 1062.6 201.269C1062.6 201.269 1064.93 199.909 1065.8 201.851C1066.68 203.794 1072.91 200.686 1072.91 213.797C1072.91 226.909 1065.82 238.621 1065.82 238.621C1065.82 238.621 1066.34 216.566 1054.78 214.332C1043.22 212.098 1030.79 205.591 1027.78 213.943C1026.15 218.631 1023.99 223.113 1021.32 227.298Z" fill="#2F2E41"/>
<path id="Vector_15" d="M1066.07 232.542C1067.33 232.542 1068.35 231.181 1068.35 229.502C1068.35 227.823 1067.33 226.462 1066.07 226.462C1064.81 226.462 1063.79 227.823 1063.79 229.502C1063.79 231.181 1064.81 232.542 1066.07 232.542Z" fill="#FFB9B9"/>
<path id="Vector_16" d="M1053.15 636.283L1056.72 646.971C1056.72 646.971 1056.72 657.66 1060.28 663.004C1063.84 668.348 1067.4 679.928 1053.15 680.818C1038.9 681.709 1032.67 676.365 1032.67 676.365C1032.67 676.365 1035.34 669.239 1032.67 666.567C1029.99 663.895 1032.67 658.551 1032.67 658.551L1035.34 637.173L1053.15 636.283Z" fill="#2F2E41"/>
<path id="Vector_17" d="M983.749 636.283L980.186 646.971C980.186 646.971 980.186 657.66 976.623 663.004C973.06 668.348 969.497 679.928 983.749 680.818C998 681.709 1004.23 676.365 1004.23 676.365C1004.23 676.365 1001.56 669.239 1004.23 666.567C1006.91 663.895 1004.23 658.551 1004.23 658.551L1001.56 637.173L983.749 636.283Z" fill="#2F2E41"/>
</g>
<g id="Landscape">
<path id="Vector_18" d="M1249.5 204.039C1275.55 204.039 1296.67 182.809 1296.67 156.62C1296.67 130.432 1275.55 109.202 1249.5 109.202C1223.45 109.202 1202.33 130.432 1202.33 156.62C1202.33 182.809 1223.45 204.039 1249.5 204.039Z" fill="#F2F2F2"/>
<path id="Vector_19" d="M1223.5 390.241C1260.65 390.241 1290.76 359.966 1290.76 322.62C1290.76 285.275 1260.65 255 1223.5 255C1186.35 255 1156.24 285.275 1156.24 322.62C1156.24 359.966 1186.35 390.241 1223.5 390.241Z" fill="#F2F2F2"/>
<path id="Vector_20" d="M1258.5 598.188C1300.01 598.188 1333.67 564.355 1333.67 522.621C1333.67 480.886 1300.01 447.053 1258.5 447.053C1216.98 447.053 1183.33 480.886 1183.33 522.621C1183.33 564.355 1216.98 598.188 1258.5 598.188Z" fill="#F2F2F2"/>
<path id="Vector_21" d="M1406 615H0V614H1406V615Z" fill="#2F2E41"/>
<path id="Vector_22" d="M1241.67 150H1239.67V614H1241.67V150Z" fill="#3F3D56"/>
<path id="Vector_23" d="M1240.67 575C1225.83 575 1211.33 570.601 1199 562.36C1186.67 554.119 1177.05 542.406 1171.38 528.701C1165.7 514.997 1164.21 499.917 1167.11 485.368C1170 470.82 1177.15 457.456 1187.63 446.967C1198.12 436.478 1211.49 429.335 1226.04 426.441C1240.58 423.547 1255.66 425.032 1269.37 430.709C1283.07 436.386 1294.79 445.999 1303.03 458.332C1311.27 470.666 1315.67 485.166 1315.67 500C1315.64 519.884 1307.74 538.948 1293.68 553.008C1279.61 567.069 1260.55 574.978 1240.67 575ZM1240.67 427C1226.23 427 1212.12 431.281 1200.11 439.303C1188.11 447.324 1178.75 458.725 1173.22 472.064C1167.7 485.403 1166.25 500.081 1169.07 514.242C1171.89 528.402 1178.84 541.41 1189.05 551.619C1199.26 561.828 1212.26 568.781 1226.43 571.597C1240.59 574.414 1255.26 572.968 1268.6 567.443C1281.94 561.918 1293.34 552.561 1301.36 540.557C1309.39 528.552 1313.67 514.438 1313.67 500C1313.64 480.646 1305.95 462.091 1292.26 448.406C1278.58 434.72 1260.02 427.022 1240.67 427Z" fill="#3F3D56"/>
<path id="Vector_24" d="M1240.67 372C1227.61 372 1214.85 368.129 1204 360.877C1193.15 353.625 1184.69 343.317 1179.69 331.257C1174.7 319.197 1173.39 305.927 1175.94 293.124C1178.48 280.321 1184.77 268.561 1194 259.331C1203.23 250.101 1214.99 243.815 1227.79 241.268C1240.59 238.722 1253.86 240.029 1265.92 245.024C1277.98 250.019 1288.29 258.479 1295.54 269.332C1302.8 280.186 1306.67 292.946 1306.67 306C1306.65 323.498 1299.69 340.274 1287.31 352.647C1274.94 365.02 1258.17 371.98 1240.67 372ZM1240.67 242C1228.01 242 1215.64 245.754 1205.11 252.786C1194.59 259.818 1186.38 269.814 1181.54 281.508C1176.69 293.203 1175.43 306.071 1177.9 318.486C1180.37 330.901 1186.46 342.304 1195.41 351.255C1204.36 360.205 1215.77 366.301 1228.18 368.77C1240.6 371.24 1253.46 369.972 1265.16 365.128C1276.85 360.284 1286.85 352.081 1293.88 341.557C1300.91 331.032 1304.67 318.658 1304.67 306C1304.65 289.032 1297.9 272.764 1285.9 260.766C1273.9 248.768 1257.64 242.019 1240.67 242Z" fill="#3F3D56"/>
<path id="Vector_25" d="M1240.67 191C1230.58 191 1220.72 188.009 1212.33 182.405C1203.95 176.801 1197.41 168.836 1193.55 159.517C1189.69 150.198 1188.68 139.943 1190.65 130.05C1192.61 120.157 1197.47 111.07 1204.6 103.938C1211.74 96.8051 1220.82 91.9478 1230.72 89.98C1240.61 88.0121 1250.86 89.0221 1260.18 92.8822C1269.5 96.7422 1277.47 103.279 1283.07 111.666C1288.68 120.053 1291.67 129.913 1291.67 140C1291.65 153.521 1286.27 166.484 1276.71 176.046C1267.15 185.607 1254.19 190.985 1240.67 191ZM1240.67 91C1230.98 91 1221.5 93.8738 1213.44 99.258C1205.39 104.642 1199.11 112.295 1195.4 121.249C1191.69 130.202 1190.72 140.054 1192.61 149.559C1194.5 159.065 1199.17 167.795 1206.02 174.648C1212.87 181.501 1221.6 186.168 1231.11 188.059C1240.61 189.949 1250.46 188.979 1259.42 185.27C1268.37 181.561 1276.02 175.281 1281.41 167.223C1286.79 159.165 1289.67 149.691 1289.67 140C1289.65 127.009 1284.49 114.554 1275.3 105.368C1266.11 96.182 1253.66 91.0148 1240.67 91Z" fill="#3F3D56"/>
<path id="Vector_26" d="M1241.67 139H1110.67V141H1241.67V139Z" fill="#3F3D56"/>
<path id="Vector_27" d="M1267.67 263H1136.67V265H1267.67V263Z" fill="#3F3D56"/>
<path id="Vector_28" d="M1343.67 290H1212.67V292H1343.67V290Z" fill="#3F3D56"/>
</g>
<g id="Phone">
<path id="Vector_29" d="M866.444 221.017H863.855V150.065C863.855 144.672 862.793 139.332 860.73 134.35C858.667 129.368 855.644 124.841 851.832 121.028C848.02 117.214 843.495 114.19 838.514 112.126C833.534 110.062 828.196 109 822.805 109H672.54C667.15 109 661.812 110.062 656.831 112.126C651.851 114.19 647.325 117.214 643.514 121.028C639.702 124.841 636.678 129.368 634.615 134.35C632.552 139.332 631.49 144.672 631.49 150.065V539.314C631.49 544.706 632.552 550.046 634.615 555.028C636.678 560.011 639.702 564.538 643.514 568.351C647.325 572.164 651.851 575.189 656.831 577.253C661.812 579.316 667.15 580.379 672.54 580.379H822.805C828.196 580.379 833.534 579.316 838.514 577.253C843.495 575.189 848.02 572.164 851.832 568.351C855.644 564.538 858.667 560.011 860.73 555.028C862.793 550.046 863.855 544.706 863.855 539.314V271.522H866.444L866.444 221.017Z" fill="#3F3D56"/>
<path id="Vector_30" opacity="0.2" d="M824.461 119.684H804.847C805.749 121.896 806.093 124.296 805.85 126.673C805.606 129.05 804.782 131.33 803.449 133.313C802.117 135.296 800.318 136.921 798.21 138.045C796.102 139.168 793.751 139.756 791.362 139.756H705.277C702.889 139.756 700.537 139.168 698.43 138.045C696.322 136.921 694.523 135.296 693.19 133.313C691.858 131.33 691.034 129.05 690.79 126.673C690.547 124.296 690.891 121.896 691.793 119.684H673.473C669.447 119.684 665.461 120.477 661.742 122.018C658.022 123.559 654.643 125.818 651.796 128.666C648.95 131.514 646.691 134.894 645.151 138.615C643.61 142.336 642.817 146.323 642.817 150.351V539.028C642.817 543.055 643.61 547.043 645.151 550.764C646.691 554.484 648.95 557.865 651.796 560.713C654.643 563.56 658.022 565.819 661.742 567.36C665.461 568.902 669.447 569.695 673.473 569.695H824.461C828.487 569.695 832.474 568.902 836.193 567.361C839.912 565.819 843.292 563.56 846.138 560.713C848.985 557.865 851.243 554.484 852.783 550.764C854.324 547.043 855.117 543.055 855.117 539.028V150.351C855.117 146.323 854.324 142.336 852.783 138.615C851.243 134.894 848.985 131.514 846.138 128.666C843.292 125.818 839.912 123.559 836.193 122.018C832.474 120.477 828.487 119.684 824.461 119.684Z" fill="black"/>
<path id="Vector_31" d="M748.967 435.917C763.585 435.917 775.435 424.062 775.435 409.439C775.435 394.816 763.585 382.961 748.967 382.961C734.349 382.961 722.499 394.816 722.499 409.439C722.499 424.062 734.349 435.917 748.967 435.917Z" fill="#E5E5E5"/>
</g>
<g id="Text">
<path id="Vector_32" d="M694.089 261H665V268.006H694.089V261Z" fill="#E5E5E5"/>
<path id="Vector_33" d="M793.235 261H783V268.006H793.235V261Z" fill="#E5E5E5"/>
<path id="Vector_34" d="M813.235 261H803V268.006H813.235V261Z" fill="#E5E5E5"/>
<path id="Vector_35" d="M773.491 261H704V268.006H773.491V261Z" fill="#E5E5E5"/>
<path id="Vector_36" d="M774.119 306.44H763.884V313.446H774.119V306.44Z" fill="#E5E5E5"/>
<path id="Vector_37" d="M794.59 306.44H784.355V313.446H794.59V306.44Z" fill="#E5E5E5"/>
<path id="Vector_38" d="M753.111 306.44H683.619V313.446H753.111V306.44Z" fill="#E5E5E5"/>
<path id="Vector_39" d="M793.089 277H764V284.006H793.089V277Z" fill="#E5E5E5"/>
<path id="Vector_40" d="M832.089 277H803V284.006H832.089V277Z" fill="#E5E5E5"/>
<path id="Vector_41" d="M675 277H664.765V284.006H675V277Z" fill="#E5E5E5"/>
<path id="Vector_42" d="M754.491 277H685V284.006H754.491V277Z" fill="#E5E5E5"/>
<path id="Vector_43" d="M703.911 299H733V291.994H703.911V299Z" fill="#E5E5E5"/>
<path id="Vector_44" d="M664.765 299H693.855V291.994H664.765V299Z" fill="#E5E5E5"/>
<path id="Vector_45" d="M822.602 298.896H832.837V291.89H822.602V298.896Z" fill="#E5E5E5"/>
<path id="Vector_46" d="M742.509 299H812V291.994H742.509V299Z" fill="#E5E5E5"/>
</g>
</g>
</g>
</svg>
